<svg width="46" height="38" viewBox="0 0 46 38" fill="none" xmlns="http://www.w3.org/2000/svg">
<path d="M36.7991 18.3447V20.5735C37.3685 20.5049 37.9441 20.5049 38.5136 20.5735V4.28615C38.5136 3.14939 38.062 2.05919 37.2582 1.25538C36.4544 0.451575 35.3642 0 34.2274 0H5.08162C3.94486 0 2.85466 0.451575 2.05085 1.25538C1.24704 2.05919 0.795466 3.14939 0.795466 4.28615V26.5741C0.786928 26.6825 0.786928 26.7915 0.795466 26.8999C0.873782 27.9807 1.36023 28.9914 2.15617 29.7268C2.9521 30.4622 3.99795 30.8675 5.08162 30.8603H28.2268C28.1582 30.2908 28.1582 29.7152 28.2268 29.1458H5.08162C4.39956 29.1458 3.74544 28.8749 3.26316 28.3926C2.78087 27.9103 2.50993 27.2562 2.50993 26.5741V25.1854L13.6196 14.0414L28.3297 28.7343C28.4128 28.0736 28.568 27.4239 28.7926 26.797L20.8546 18.8591L29.0669 10.6297L36.7991 18.3447ZM21.369 10.2868C21.0299 10.2868 20.6984 10.1862 20.4165 9.99782C20.1345 9.80943 19.9148 9.54167 19.785 9.22839C19.6553 8.91512 19.6213 8.5704 19.6875 8.23782C19.7536 7.90525 19.9169 7.59976 20.1567 7.35999C20.3964 7.12022 20.7019 6.95693 21.0345 6.89078C21.3671 6.82463 21.7118 6.85858 22.0251 6.98834C22.3384 7.11811 22.6061 7.33785 22.7945 7.61979C22.9829 7.90174 23.0834 8.23321 23.0834 8.5723C23.0834 9.027 22.9028 9.46308 22.5813 9.78461C22.2598 10.1061 21.8237 10.2868 21.369 10.2868ZM37.6563 22.288C36.1305 22.288 34.6388 22.7405 33.3701 23.5882C32.1013 24.4359 31.1125 25.6409 30.5286 27.0506C29.9446 28.4604 29.7918 30.0116 30.0895 31.5082C30.3872 33.0048 31.122 34.3795 32.201 35.4584C33.2799 36.5374 34.6546 37.2722 36.1512 37.5699C37.6478 37.8676 39.199 37.7148 40.6088 37.1308C42.0185 36.5469 43.2234 35.558 44.0712 34.2893C44.9189 33.0206 45.3714 31.5289 45.3714 30.003C45.3669 27.9583 44.5526 25.9985 43.1067 24.5527C41.6608 23.1068 39.7011 22.2925 37.6563 22.288ZM39.9709 28.8886C39.8939 28.9707 39.8009 29.036 39.6977 29.0807C39.5945 29.1254 39.4833 29.1484 39.3708 29.1484C39.2583 29.1484 39.1471 29.1254 39.0439 29.0807C38.9407 29.036 38.8477 28.9707 38.7707 28.8886L38.5136 28.6486V33.432C38.5136 33.6593 38.4233 33.8774 38.2625 34.0381C38.1017 34.1989 37.8837 34.2892 37.6563 34.2892C37.429 34.2892 37.211 34.1989 37.0502 34.0381C36.8894 33.8774 36.7991 33.6593 36.7991 33.432V28.6486L36.542 28.8886C36.4631 28.9674 36.3696 29.03 36.2666 29.0726C36.1637 29.1152 36.0533 29.1372 35.9419 29.1372C35.8304 29.1372 35.7201 29.1152 35.6171 29.0726C35.5142 29.03 35.4206 28.9674 35.3418 28.8886C35.263 28.8098 35.2005 28.7163 35.1579 28.6133C35.1152 28.5104 35.0933 28.4 35.0933 28.2886C35.0933 28.1771 35.1152 28.0668 35.1579 27.9638C35.2005 27.8609 35.263 27.7673 35.3418 27.6885L37.0563 25.9741C37.1287 25.8873 37.2236 25.822 37.3306 25.7855C37.5393 25.6997 37.7734 25.6997 37.9821 25.7855C38.0891 25.822 38.184 25.8873 38.2564 25.9741L39.9709 27.6885C40.0529 27.7655 40.1182 27.8584 40.1629 27.9616C40.2076 28.0649 40.2306 28.1761 40.2306 28.2886C40.2306 28.401 40.2076 28.5123 40.1629 28.6155C40.1182 28.7187 40.0529 28.8117 39.9709 28.8886Z" fill="#e03609"/>
</svg>
