<svg width="76" height="58" viewBox="0 0 76 58" fill="none" xmlns="http://www.w3.org/2000/svg">
<path d="M40.5449 23.2052C40.5449 25.769 42.631 27.8567 45.1964 27.8567H49.1982C52.8058 27.8567 55.7417 30.791 55.7417 34.4002C55.7417 38.0079 52.8074 40.9438 49.1982 40.9438H48.1433V44.1478C48.1433 44.6697 47.7192 45.0939 47.1973 45.0939C46.6754 45.0939 46.2512 44.6697 46.2512 44.1478V40.9438H45.1964C41.5887 40.9438 38.6528 38.0095 38.6528 34.4002C38.6528 33.8783 39.0769 33.4542 39.5988 33.4542C40.1208 33.4542 40.5449 33.8783 40.5449 34.4002C40.5449 36.9641 42.631 39.0517 45.1964 39.0517H49.1982C51.762 39.0517 53.8496 36.9656 53.8496 34.4002C53.8496 31.8364 51.7636 29.7488 49.1982 29.7488H45.1964C41.5887 29.7488 38.6528 26.8144 38.6528 23.2052C38.6528 19.5976 41.5871 16.6617 45.1964 16.6617H46.2512V13.4577C46.2512 12.9358 46.6754 12.5116 47.1973 12.5116C47.7192 12.5116 48.1433 12.9358 48.1433 13.4577V16.6617H49.1982C52.8058 16.6617 55.7417 19.596 55.7417 23.2052C55.7417 23.7271 55.3176 24.1513 54.7957 24.1513C54.2738 24.1513 53.8496 23.7271 53.8496 23.2052C53.8496 20.6414 51.7636 18.5538 49.1982 18.5538H45.1964C42.631 18.5554 40.5449 20.6414 40.5449 23.2052ZM76 28.8027C76 44.6855 63.0784 57.6055 47.1973 57.6055C40.2516 57.6055 33.8736 55.1347 28.8942 51.0256H16.2344C15.7124 51.0256 15.2883 50.6015 15.2883 50.0796C15.2883 49.5577 15.7124 49.1335 16.2344 49.1335H26.816C23.1958 45.5038 20.5358 40.9154 19.2539 35.7878H7.01344C6.49154 35.7878 6.06739 35.3637 6.06739 34.8417C6.06739 34.3198 6.49154 33.8957 7.01344 33.8957H18.8439C18.5431 32.2147 18.3922 30.5104 18.3929 28.8027C18.3929 26.0308 18.7871 23.3503 19.5219 20.8133H12.5763C12.0544 20.8133 11.6302 20.3891 11.6302 19.8672C11.6302 19.3453 12.0544 18.9212 12.5763 18.9212H20.1416C22.1015 13.5712 25.6066 8.96075 30.113 5.62905H23.9242C23.4023 5.62905 22.9782 5.2049 22.9782 4.68299C22.9782 4.16108 23.4023 3.73693 23.9242 3.73693H33.0237C37.2116 1.35917 42.0491 0 47.1988 0C63.0784 0 76 12.92 76 28.8027ZM74.1079 28.8027C74.1079 13.9638 62.0362 1.89212 47.1973 1.89212C32.3583 1.89212 20.2866 13.9638 20.2866 28.8027C20.2866 43.6417 32.3583 55.7134 47.1973 55.7134C62.0362 55.7134 74.1079 43.6417 74.1079 28.8027ZM69.9626 28.8027C69.9626 41.3554 59.7499 51.5681 47.1973 51.5681C34.6446 51.5681 24.432 41.3554 24.432 28.8027C24.432 16.2501 34.6446 6.03743 47.1973 6.03743C59.7499 6.03743 69.9626 16.2501 69.9626 28.8027ZM68.0705 28.8027C68.0705 17.2939 58.7061 7.92954 47.1973 7.92954C35.6885 7.92954 26.3241 17.2939 26.3241 28.8027C26.3241 40.3115 35.6885 49.6759 47.1973 49.6759C58.7061 49.6759 68.0705 40.3115 68.0705 28.8027ZM6.22506 6.94407H17.0716C17.5935 6.94407 18.0177 6.51992 18.0177 5.99801C18.0177 5.4761 17.5935 5.05195 17.0716 5.05195H6.22506C5.70315 5.05195 5.279 5.4761 5.279 5.99801C5.279 6.51992 5.70158 6.94407 6.22506 6.94407ZM15.7172 15.0502C16.2391 15.0502 16.6632 14.6261 16.6632 14.1041C16.6632 13.5822 16.2391 13.1581 15.7172 13.1581H0.946058C0.424149 13.1581 0 13.5822 0 14.1041C0 14.6261 0.424149 15.0502 0.946058 15.0502H15.7172ZM12.8664 27.3805C12.8664 26.8586 12.4422 26.4344 11.9203 26.4344H1.27718C0.75527 26.4344 0.33112 26.8586 0.33112 27.3805C0.33112 27.9024 0.75527 28.3266 1.27718 28.3266H11.9203C12.4422 28.3266 12.8664 27.9024 12.8664 27.3805ZM16.9139 42.3771C16.9139 41.8552 16.4898 41.431 15.9679 41.431H7.4171C6.89519 41.431 6.47104 41.8552 6.47104 42.3771C6.47104 42.899 6.89519 43.3232 7.4171 43.3232H15.9679C16.4898 43.3232 16.9139 42.899 16.9139 42.3771Z" fill="#420080"/>
</svg>
