<svg width="54" height="58" viewBox="0 0 54 58" fill="none" xmlns="http://www.w3.org/2000/svg">
<path d="M53.5231 12.711L27.3669 0.0838771C27.2525 0.0286713 27.1271 0 27.0001 0C26.873 0 26.7476 0.0286713 26.6332 0.0838771L0.476951 12.711C0.334038 12.78 0.213479 12.8879 0.129114 13.0223C0.0447495 13.1567 -9.97831e-07 13.3122 0 13.4709V44.1368C-9.97831e-07 44.2955 0.0447495 44.451 0.129114 44.5854C0.213479 44.7198 0.334038 44.8277 0.476951 44.8967L26.6331 57.5238C26.7475 57.579 26.8729 57.6077 27 57.6077C27.1271 57.6077 27.2525 57.579 27.3669 57.5238L53.5231 44.8967C53.666 44.8277 53.7865 44.7198 53.8709 44.5854C53.9553 44.451 54 44.2955 54 44.1368V13.471C54 13.3123 53.9552 13.1568 53.8709 13.0224C53.7865 12.8879 53.666 12.78 53.5231 12.711ZM27 1.78094L51.2151 13.4709L44.1957 16.8596C44.1512 16.8249 44.1033 16.7947 44.0528 16.7696L20.0021 5.1592L27 1.78094ZM18.0964 6.11333L42.2763 17.7863L37.3239 20.1771L13.154 8.50889L18.0964 6.11333ZM42.842 19.3872V28.2248L38.2162 30.458V21.6204L42.842 19.3872ZM52.3123 43.6073L27.8439 55.4193V26.6276L33.6804 23.81C33.7801 23.7618 33.8695 23.6945 33.9432 23.6118C34.017 23.5291 34.0737 23.4326 34.1102 23.328C34.1467 23.2234 34.1623 23.1126 34.1559 23.0019C34.1496 22.8913 34.1216 22.783 34.0734 22.6832C34.0252 22.5834 33.9578 22.4941 33.8751 22.4203C33.7924 22.3465 33.696 22.2898 33.5913 22.2533C33.4867 22.2168 33.3759 22.2013 33.2653 22.2076C33.1546 22.2139 33.0463 22.242 32.9465 22.2902L27 25.161L24.6601 24.0313C24.5604 23.9831 24.452 23.9551 24.3414 23.9487C24.2307 23.9424 24.1199 23.9579 24.0153 23.9944C23.9106 24.0309 23.8142 24.0876 23.7315 24.1614C23.6488 24.2352 23.5815 24.3245 23.5333 24.4244C23.4851 24.5242 23.4571 24.6325 23.4507 24.7431C23.4444 24.8537 23.4599 24.9645 23.4964 25.0692C23.5329 25.1738 23.5897 25.2702 23.6634 25.3529C23.7372 25.4356 23.8265 25.503 23.9263 25.5512L26.1561 26.6276V55.4193L1.68773 43.607V14.8154L20.3202 23.8104C20.4344 23.8657 20.5596 23.8945 20.6864 23.8945C20.8777 23.8948 21.0633 23.83 21.213 23.711C21.3626 23.5919 21.4673 23.4255 21.51 23.2391C21.5527 23.0527 21.5309 22.8573 21.448 22.685C21.3651 22.5126 21.2262 22.3736 21.0539 22.2905L2.78486 13.4709L11.1678 9.42397L36.5167 21.6614C36.5205 21.6666 36.5246 21.6712 36.5284 21.6763V31.8025C36.5285 31.9454 36.5648 32.0858 36.634 32.2108C36.7031 32.3358 36.8028 32.4412 36.9238 32.5171C37.0448 32.593 37.1831 32.637 37.3257 32.645C37.4683 32.6529 37.6106 32.6245 37.7392 32.5625L44.0528 29.5145C44.1957 29.4455 44.3163 29.3376 44.4006 29.2032C44.485 29.0688 44.5297 28.9133 44.5297 28.7546V18.5726L52.3123 14.8155V43.6073Z" fill="#420080"/>
</svg>
