<svg width="211" height="94" viewBox="0 0 211 94" fill="none" xmlns="http://www.w3.org/2000/svg">
<path opacity="0.1" d="M28.6794 62.8049C17.7271 65.7799 10.1791 83.4787 1 86.3812V93.5399H209.691V50.3514C199.472 50.3514 198.109 63.5421 193.3 59.911C188.491 56.2799 183.44 31.3141 177.83 32.6345C172.22 33.9549 169.141 -1.08147 157.319 2.21954C145.498 5.52056 136.797 43.2234 127.38 27.0484C117.963 10.8734 115.961 19.4081 105.943 16.107C95.9246 12.806 91.5359 52.3505 82.047 51.0868C72.5581 49.8231 70.0251 82.7136 60.3415 79.6629C48.6071 75.9662 49.6285 73.8956 44.4109 69.1005C39.1933 64.3053 34.5169 61.2193 28.6794 62.8049Z" fill="#420080"/>
<path d="M1.3125 86.336C10.4778 83.4351 18.0146 65.7457 28.9504 62.7723C34.7791 61.1876 39.4485 64.272 44.6583 69.0645C49.8681 73.8571 48.8483 75.9266 60.565 79.6213C70.2341 82.6703 72.7633 49.7975 82.238 51.0605C91.7127 52.3235 96.0948 12.8002 106.098 16.0995C116.101 19.3987 118.1 10.8687 127.503 27.035C136.906 43.2013 145.593 5.51867 157.397 2.21943C169.201 -1.07982 172.275 33.9378 177.877 32.6181C183.479 31.2984 188.523 56.2508 193.324 59.8799C198.126 63.5091 199.487 50.3255 209.691 50.3255" stroke="#420080" stroke-width="2.57" stroke-linecap="round" stroke-linejoin="round"/>
</svg>
