<svg width="23" height="23" viewBox="0 0 23 23" fill="none" xmlns="http://www.w3.org/2000/svg">
<g clip-path="url(#clip0_3936_10746)">
<path d="M15.2037 -0.111328H1.87037C1.77214 -0.111328 1.67794 -0.0723071 1.60848 -0.00284917C1.53902 0.0666088 1.5 0.160814 1.5 0.259042V18.7776C1.5 18.8758 1.53902 18.97 1.60848 19.0395C1.67794 19.1089 1.77214 19.1479 1.87037 19.1479H15.2037C15.3019 19.1479 15.3961 19.1089 15.4656 19.0395C15.5351 18.97 15.5741 18.8758 15.5741 18.7776V0.259042C15.5741 0.160814 15.5351 0.0666088 15.4656 -0.00284917C15.3961 -0.0723071 15.3019 -0.111328 15.2037 -0.111328ZM2.98148 4.70349C2.98148 4.60526 3.0205 4.51105 3.08996 4.4416C3.15942 4.37214 3.25362 4.33312 3.35185 4.33312H7.05556C7.15378 4.33312 7.24799 4.37214 7.31745 4.4416C7.38691 4.51105 7.42593 4.60526 7.42593 4.70349V8.40719C7.42593 8.50542 7.38691 8.59962 7.31745 8.66908C7.24799 8.73854 7.15378 8.77756 7.05556 8.77756H3.35185C3.25362 8.77756 3.15942 8.73854 3.08996 8.66908C3.0205 8.59962 2.98148 8.50542 2.98148 8.40719V4.70349ZM12.9815 13.9627H4.09259C3.99436 13.9627 3.90016 13.9237 3.8307 13.8543C3.76124 13.7848 3.72222 13.6906 3.72222 13.5924C3.72222 13.4941 3.76124 13.3999 3.8307 13.3305C3.90016 13.261 3.99436 13.222 4.09259 13.222H12.9815C13.0797 13.222 13.1739 13.261 13.2434 13.3305C13.3128 13.3999 13.3519 13.4941 13.3519 13.5924C13.3519 13.6906 13.3128 13.7848 13.2434 13.8543C13.1739 13.9237 13.0797 13.9627 12.9815 13.9627ZM13.3519 15.0739C13.3519 15.1721 13.3128 15.2663 13.2434 15.3357C13.1739 15.4052 13.0797 15.4442 12.9815 15.4442H9.27778C9.17955 15.4442 9.08534 15.4052 9.01589 15.3357C8.94643 15.2663 8.90741 15.1721 8.90741 15.0739C8.90741 14.9756 8.94643 14.8814 9.01589 14.812C9.08534 14.7425 9.17955 14.7035 9.27778 14.7035H12.9815C13.0797 14.7035 13.1739 14.7425 13.2434 14.812C13.3128 14.8814 13.3519 14.9756 13.3519 15.0739ZM12.9815 12.4813H4.09259C3.99436 12.4813 3.90016 12.4422 3.8307 12.3728C3.76124 12.3033 3.72222 12.2091 3.72222 12.1109C3.72222 12.0127 3.76124 11.9185 3.8307 11.849C3.90016 11.7795 3.99436 11.7405 4.09259 11.7405H12.9815C13.0797 11.7405 13.1739 11.7795 13.2434 11.849C13.3128 11.9185 13.3519 12.0127 13.3519 12.1109C13.3519 12.2091 13.3128 12.3033 13.2434 12.3728C13.1739 12.4422 13.0797 12.4813 12.9815 12.4813ZM12.9815 10.9998H4.09259C3.99436 10.9998 3.90016 10.9608 3.8307 10.8913C3.76124 10.8218 3.72222 10.7276 3.72222 10.6294C3.72222 10.5312 3.76124 10.437 3.8307 10.3675C3.90016 10.2981 3.99436 10.259 4.09259 10.259H12.9815C13.0797 10.259 13.1739 10.2981 13.2434 10.3675C13.3128 10.437 13.3519 10.5312 13.3519 10.6294C13.3519 10.7276 13.3128 10.8218 13.2434 10.8913C13.1739 10.9608 13.0797 10.9998 12.9815 10.9998ZM3.35185 14.7035H7.05556C7.15378 14.7035 7.24799 14.7425 7.31745 14.812C7.38691 14.8814 7.42593 14.9756 7.42593 15.0739C7.42593 15.1721 7.38691 15.2663 7.31745 15.3357C7.24799 15.4052 7.15378 15.4442 7.05556 15.4442H3.35185C3.25362 15.4442 3.15942 15.4052 3.08996 15.3357C3.0205 15.2663 2.98148 15.1721 2.98148 15.0739C2.98148 14.9756 3.0205 14.8814 3.08996 14.812C3.15942 14.7425 3.25362 14.7035 3.35185 14.7035ZM7.7963 16.9257H3.35185C3.25362 16.9257 3.15942 16.8867 3.08996 16.8172C3.0205 16.7478 2.98148 16.6536 2.98148 16.5553C2.98148 16.4571 3.0205 16.3629 3.08996 16.2934C3.15942 16.224 3.25362 16.185 3.35185 16.185H7.7963C7.89453 16.185 7.98873 16.224 8.05819 16.2934C8.12765 16.3629 8.16667 16.4571 8.16667 16.5553C8.16667 16.6536 8.12765 16.7478 8.05819 16.8172C7.98873 16.8867 7.89453 16.9257 7.7963 16.9257ZM13.7222 16.9257H9.27778C9.17955 16.9257 9.08534 16.8867 9.01589 16.8172C8.94643 16.7478 8.90741 16.6536 8.90741 16.5553C8.90741 16.4571 8.94643 16.3629 9.01589 16.2934C9.08534 16.224 9.17955 16.185 9.27778 16.185H13.7222C13.8205 16.185 13.9147 16.224 13.9841 16.2934C14.0536 16.3629 14.0926 16.4571 14.0926 16.5553C14.0926 16.6536 14.0536 16.7478 13.9841 16.8172C13.9147 16.8867 13.8205 16.9257 13.7222 16.9257ZM13.7222 7.66645H9.27778C9.17955 7.66645 9.08534 7.62743 9.01589 7.55797C8.94643 7.48851 8.90741 7.39431 8.90741 7.29608C8.90741 7.19785 8.94643 7.10365 9.01589 7.03419C9.08534 6.96473 9.17955 6.92571 9.27778 6.92571H13.7222C13.8205 6.92571 13.9147 6.96473 13.9841 7.03419C14.0536 7.10365 14.0926 7.19785 14.0926 7.29608C14.0926 7.39431 14.0536 7.48851 13.9841 7.55797C13.9147 7.62743 13.8205 7.66645 13.7222 7.66645ZM8.90741 5.8146C8.90741 5.71637 8.94643 5.62216 9.01589 5.55271C9.08534 5.48325 9.17955 5.44423 9.27778 5.44423H12.9815C13.0797 5.44423 13.1739 5.48325 13.2434 5.55271C13.3128 5.62216 13.3519 5.71637 13.3519 5.8146C13.3519 5.91283 13.3128 6.00703 13.2434 6.07649C13.1739 6.14595 13.0797 6.18497 12.9815 6.18497H9.27778C9.17955 6.18497 9.08534 6.14595 9.01589 6.07649C8.94643 6.00703 8.90741 5.91283 8.90741 5.8146ZM14.0926 3.22201C14.0926 3.32023 14.0536 3.41444 13.9841 3.4839C13.9147 3.55335 13.8205 3.59238 13.7222 3.59238H7.7963C7.69807 3.59238 7.60386 3.55335 7.5344 3.4839C7.46495 3.41444 7.42593 3.32023 7.42593 3.22201V1.74052C7.42593 1.6423 7.46495 1.54809 7.5344 1.47863C7.60386 1.40917 7.69807 1.37015 7.7963 1.37015H13.7222C13.8205 1.37015 13.9147 1.40917 13.9841 1.47863C14.0536 1.54809 14.0926 1.6423 14.0926 1.74052V3.22201Z" fill="white"/>
<path d="M18.1685 1.37012H16.3167V19.4886C16.3162 19.542 16.3052 19.5947 16.2842 19.6437C16.2632 19.6928 16.2328 19.7372 16.1945 19.7743C16.1563 19.8115 16.1111 19.8408 16.0615 19.8604C16.0119 19.88 15.9589 19.8896 15.9056 19.8886H4.46484V20.259C4.46484 20.3572 4.50386 20.4514 4.57332 20.5209C4.64278 20.5904 4.73699 20.6294 4.83521 20.6294H18.1685C18.2668 20.6294 18.361 20.5904 18.4304 20.5209C18.4999 20.4514 18.5389 20.3572 18.5389 20.259V1.74049C18.5389 1.64226 18.4999 1.54805 18.4304 1.4786C18.361 1.40914 18.2668 1.37012 18.1685 1.37012Z" fill="white"/>
<path d="M21.1295 2.85156H19.2776V20.9701C19.2772 21.0234 19.2661 21.0761 19.2451 21.1252C19.2242 21.1742 19.1937 21.2186 19.1555 21.2558C19.1172 21.293 19.072 21.3222 19.0224 21.3419C18.9728 21.3615 18.9198 21.3711 18.8665 21.3701H7.42578V21.7405C7.42578 21.8387 7.4648 21.9329 7.53426 22.0023C7.60372 22.0718 7.69792 22.1108 7.79615 22.1108H21.1295C21.2277 22.1108 21.3219 22.0718 21.3914 22.0023C21.4608 21.9329 21.4999 21.8387 21.4999 21.7405V3.22193C21.4999 3.1237 21.4608 3.0295 21.3914 2.96004C21.3219 2.89058 21.2277 2.85156 21.1295 2.85156Z" fill="white"/>
</g>
<defs>
<clipPath id="clip0_3936_10746">
<rect width="22" height="23" fill="white" transform="translate(0.5)"/>
</clipPath>
</defs>
</svg>
