<svg width="23" height="23" viewBox="0 0 23 23" fill="none" xmlns="http://www.w3.org/2000/svg">
<g clip-path="url(#clip0_3936_30274)">
<path fill-rule="evenodd" clip-rule="evenodd" d="M1.59181 1.86914H18.3845C18.985 1.86914 19.4763 2.36045 19.4763 2.96095V4.24945H0.5V2.96095C0.5 2.36045 0.99131 1.86914 1.59181 1.86914ZM22.2052 17.0709C21.3247 17.0709 20.8829 18.1376 21.5055 18.7602C21.5605 18.8153 21.5915 18.89 21.5915 18.9679C21.5915 19.0458 21.5605 19.1205 21.5055 19.1756L20.8731 19.8079C20.818 19.863 20.7433 19.894 20.6654 19.894C20.5875 19.894 20.5128 19.863 20.4577 19.8079C19.8352 19.1854 18.7684 19.6272 18.7684 20.5077C18.7684 20.5462 18.7608 20.5844 18.7461 20.6201C18.7313 20.6557 18.7097 20.6881 18.6824 20.7153C18.6551 20.7426 18.6227 20.7643 18.5871 20.779C18.5515 20.7938 18.5133 20.8013 18.4747 20.8013H17.5805C17.5026 20.8013 17.4279 20.7704 17.3728 20.7153C17.3177 20.6602 17.2868 20.5855 17.2868 20.5077C17.2868 19.626 16.2208 19.1845 15.5975 19.8079C15.5424 19.863 15.4677 19.894 15.3898 19.894C15.3119 19.894 15.2372 19.863 15.1821 19.8079L14.5498 19.1756C14.4947 19.1205 14.4638 19.0458 14.4638 18.9679C14.4638 18.89 14.4947 18.8153 14.5498 18.7602C15.1724 18.1376 14.7305 17.0709 13.8501 17.0709C13.8115 17.0709 13.7733 17.0633 13.7376 17.0486C13.702 17.0338 13.6696 17.0122 13.6423 16.9849C13.6151 16.9576 13.5934 16.9252 13.5787 16.8896C13.5639 16.854 13.5563 16.8158 13.5563 16.7772V15.883C13.5563 15.8444 13.5639 15.8062 13.5787 15.7706C13.5934 15.735 13.6151 15.7026 13.6423 15.6753C13.6696 15.648 13.702 15.6264 13.7376 15.6116C13.7733 15.5969 13.8115 15.5893 13.8501 15.5893C14.7305 15.5893 15.1724 14.5226 14.5498 13.9C14.4947 13.8449 14.4638 13.7702 14.4638 13.6923C14.4638 13.6144 14.4947 13.5397 14.5498 13.4846L15.1821 12.8522C15.2372 12.7972 15.3119 12.7662 15.3898 12.7662C15.4677 12.7662 15.5424 12.7972 15.5975 12.8522C16.2201 13.4748 17.2868 13.033 17.2868 12.1525C17.2868 12.1139 17.2944 12.0757 17.3091 12.0401C17.3239 12.0045 17.3455 11.9721 17.3728 11.9448C17.4001 11.9175 17.4325 11.8959 17.4681 11.8812C17.5037 11.8664 17.5419 11.8588 17.5805 11.8588H18.4747C18.5133 11.8588 18.5515 11.8664 18.5871 11.8812C18.6228 11.8959 18.6552 11.9175 18.6824 11.9448C18.7097 11.9721 18.7313 12.0045 18.7461 12.0401C18.7609 12.0757 18.7685 12.1139 18.7685 12.1525C18.7685 13.033 19.8352 13.4748 20.4578 12.8522C20.5129 12.7972 20.5876 12.7662 20.6655 12.7662C20.7434 12.7662 20.8181 12.7972 20.8732 12.8522L21.5055 13.4846C21.5606 13.5397 21.5915 13.6144 21.5915 13.6923C21.5915 13.7702 21.5606 13.8449 21.5055 13.9C20.8829 14.5226 21.3247 15.5893 22.2053 15.5893C22.2832 15.5893 22.3579 15.6202 22.413 15.6753C22.468 15.7304 22.499 15.8051 22.499 15.883V16.7772C22.499 16.8551 22.468 16.9298 22.4129 16.9849C22.3578 17.04 22.2831 17.0709 22.2052 17.0709ZM18.0276 14.6148C17.0803 14.6148 16.3124 15.3828 16.3124 16.3301C16.3124 17.2774 17.0803 18.0453 18.0276 18.0453C18.9749 18.0453 19.7429 17.2774 19.7429 16.3301C19.7429 15.3828 18.9749 14.6148 18.0276 14.6148ZM3.01624 7.17728H6.32878C6.54121 7.17728 6.71448 7.35054 6.71448 7.56298V10.9593C6.71448 11.1717 6.54121 11.345 6.32878 11.345H3.01624C2.80381 11.345 2.63054 11.1717 2.63054 10.9593V7.56298C2.63054 7.35054 2.80381 7.17728 3.01624 7.17728ZM8.65204 7.94867C8.54975 7.94867 8.45164 7.90804 8.37931 7.83571C8.30698 7.76337 8.26634 7.66527 8.26634 7.56298C8.26634 7.46068 8.30698 7.36258 8.37931 7.29025C8.45164 7.21792 8.54975 7.17728 8.65204 7.17728H12.9155C13.0178 7.17728 13.1159 7.21792 13.1882 7.29025C13.2606 7.36258 13.3012 7.46068 13.3012 7.56298C13.3012 7.66527 13.2606 7.76337 13.1882 7.83571C13.1159 7.90804 13.0178 7.94867 12.9155 7.94867H8.65204ZM3.01624 13.6217C2.91395 13.6217 2.81584 13.5811 2.74351 13.5088C2.67118 13.4364 2.63054 13.3383 2.63054 13.236C2.63054 13.1337 2.67118 13.0356 2.74351 12.9633C2.81584 12.891 2.91395 12.8503 3.01624 12.8503H12.9155C13.0178 12.8503 13.1159 12.891 13.1882 12.9633C13.2606 13.0356 13.3012 13.1337 13.3012 13.236C13.3012 13.3383 13.2606 13.4364 13.1882 13.5088C13.1159 13.5811 13.0178 13.6217 12.9155 13.6217H3.01624ZM8.65204 11.7307C8.54975 11.7307 8.45164 11.6901 8.37931 11.6177C8.30698 11.5454 8.26634 11.4473 8.26634 11.345C8.26634 11.2427 8.30698 11.1446 8.37931 11.0723C8.45164 10.9999 8.54975 10.9593 8.65204 10.9593H12.9155C13.0178 10.9593 13.1159 10.9999 13.1882 11.0723C13.2606 11.1446 13.3012 11.2427 13.3012 11.345C13.3012 11.4473 13.2606 11.5454 13.1882 11.6177C13.1159 11.6901 13.0178 11.7307 12.9155 11.7307H8.65204ZM8.65204 9.83973C8.54975 9.83973 8.45164 9.7991 8.37931 9.72677C8.30698 9.65443 8.26634 9.55633 8.26634 9.45404C8.26634 9.35174 8.30698 9.25364 8.37931 9.18131C8.45164 9.10898 8.54975 9.06834 8.65204 9.06834H12.9155C13.0178 9.06834 13.1159 9.10898 13.1882 9.18131C13.2606 9.25364 13.3012 9.35174 13.3012 9.45404C13.3012 9.55633 13.2606 9.65443 13.1882 9.72677C13.1159 9.7991 13.0178 9.83973 12.9155 9.83973H8.65204ZM19.4763 5.14372H0.5V17.0775C0.5 17.678 0.99131 18.1693 1.59181 18.1693H13.878C13.8908 18.1552 13.9039 18.1414 13.9174 18.1279C13.9311 18.1147 13.9405 18.0977 13.9444 18.0791C13.9483 18.0605 13.9465 18.0411 13.9392 18.0236C13.9319 18.006 13.9195 17.991 13.9036 17.9806C13.8877 17.9702 13.8691 17.9648 13.8501 17.9652C13.1942 17.9652 12.6621 17.433 12.6621 16.7772V15.883C12.6621 15.7537 12.6828 15.6293 12.721 15.5127H3.01624C2.91395 15.5127 2.81584 15.4721 2.74351 15.3998C2.67118 15.3274 2.63054 15.2293 2.63054 15.127C2.63054 15.0247 2.67118 14.9266 2.74351 14.8543C2.81584 14.782 2.91395 14.7413 3.01624 14.7413H12.9155C12.9722 14.7413 13.0282 14.7537 13.0795 14.7779C13.1308 14.802 13.1762 14.8371 13.2123 14.8808C13.4028 14.7592 13.6241 14.6947 13.85 14.6951C13.869 14.6954 13.8877 14.69 13.9036 14.6796C13.9195 14.6692 13.9319 14.6542 13.9391 14.6367C13.9464 14.6191 13.9482 14.5998 13.9443 14.5812C13.9405 14.5626 13.9311 14.5455 13.9174 14.5324C13.4537 14.0687 13.4537 13.3159 13.9174 12.8522C14.1332 12.6365 14.3489 12.412 14.5687 12.2014V7.56298C14.5687 7.35054 14.7419 7.17728 14.9544 7.17728H16.96C17.1724 7.17728 17.3457 7.35054 17.3457 7.56298V10.9878C17.423 10.9723 17.5016 10.9645 17.5804 10.9645H18.4747C18.8953 10.9645 19.2651 11.1835 19.4762 11.5137V5.14372H19.4763ZM4.11579 2.86343C3.88413 2.86343 3.69638 3.05123 3.69638 3.28289C3.69638 3.51455 3.88417 3.7023 4.11579 3.7023C4.17123 3.70287 4.22624 3.69244 4.27763 3.67162C4.32902 3.6508 4.37577 3.62 4.41518 3.58099C4.45459 3.54199 4.48588 3.49555 4.50723 3.44438C4.52858 3.39321 4.53957 3.33831 4.53957 3.28286C4.53957 3.22742 4.52858 3.17252 4.50723 3.12135C4.48588 3.07017 4.45459 3.02374 4.41518 2.98474C4.37577 2.94573 4.32902 2.91493 4.27763 2.89411C4.22624 2.87328 4.17123 2.86286 4.11579 2.86343ZM5.77912 2.86343C5.66787 2.86343 5.56118 2.90762 5.48252 2.98629C5.40386 3.06495 5.35967 3.17164 5.35967 3.28289C5.35967 3.39413 5.40386 3.50082 5.48252 3.57949C5.56118 3.65815 5.66787 3.70234 5.77912 3.70234C5.89037 3.70234 5.99706 3.65815 6.07572 3.57949C6.15438 3.50082 6.19858 3.39413 6.19858 3.28289C6.19858 3.17164 6.15438 3.06495 6.07572 2.98629C5.99706 2.90762 5.89037 2.86343 5.77912 2.86343ZM2.4525 2.86343C2.22084 2.86343 2.03309 3.05123 2.03309 3.28289C2.03309 3.51455 2.22088 3.7023 2.4525 3.7023C2.68416 3.7023 2.87195 3.5145 2.87195 3.28289C2.87191 3.05123 2.68411 2.86343 2.4525 2.86343Z" fill="white"/>
</g>
<defs>
<clipPath id="clip0_3936_30274">
<rect width="22" height="23" fill="white" transform="translate(0.5)"/>
</clipPath>
</defs>
</svg>
