<svg width="23" height="23" viewBox="0 0 23 23" fill="none" xmlns="http://www.w3.org/2000/svg">
<path d="M10.7218 2.85782L12.0186 0.5H4.70312L5.99992 2.85782H10.7218ZM8.43476 15.7661C8.49813 15.9014 8.59877 16.0159 8.72489 16.0961C8.85101 16.1763 8.99737 16.2188 9.14682 16.2188H11.0189L11.5872 17.356C11.6524 17.4867 11.7528 17.5965 11.8771 17.6733C12.0013 17.7501 12.1445 17.7907 12.2906 17.7906H12.3142C12.4639 17.7861 12.6092 17.7389 12.733 17.6545C12.8568 17.5701 12.9539 17.4521 13.0129 17.3144L14.8472 13.0341C14.2198 12.9549 13.6147 12.7501 13.0681 12.432C12.5215 12.1139 12.0446 11.6889 11.6658 11.1825L8.54322 14.929C8.44741 15.0438 8.38631 15.1835 8.3671 15.3318C8.34789 15.48 8.37136 15.6307 8.43476 15.7661ZM22.3254 14.9298L19.2029 11.1825C18.8241 11.6889 18.3471 12.1139 17.8005 12.432C17.2539 12.7501 16.6489 12.9549 16.0214 13.0341C16.0214 13.0341 18.2496 17.7812 18.5553 17.7906H18.5781C18.7241 17.7907 18.8673 17.7501 18.9916 17.6733C19.1158 17.5965 19.2162 17.4867 19.2815 17.356L19.8497 16.2188H21.7218C21.8712 16.2187 22.0174 16.1761 22.1434 16.0959C22.2694 16.0158 22.37 15.9014 22.4333 15.7661C22.4966 15.6309 22.5201 15.4804 22.501 15.3323C22.4819 15.1842 22.421 15.0446 22.3254 14.9298ZM19.364 8.35938C19.364 6.19255 17.6012 4.42969 15.4343 4.42969C13.2675 4.42969 11.5046 6.19255 11.5046 8.35938C11.5046 10.5262 13.2675 12.2891 15.4343 12.2891C17.6012 12.2891 19.364 10.5262 19.364 8.35938ZM16.8915 7.4587L15.3196 9.03058C15.2832 9.06736 15.2399 9.09656 15.1921 9.11649C15.1443 9.13642 15.0931 9.14668 15.0414 9.14668C14.9896 9.14668 14.9384 9.13642 14.8906 9.11649C14.8429 9.09656 14.7995 9.06736 14.7631 9.03058L13.9772 8.24464C13.9034 8.17085 13.862 8.07077 13.862 7.96642C13.862 7.86206 13.9034 7.76198 13.9772 7.68819C14.051 7.6144 14.1511 7.57295 14.2554 7.57295C14.3598 7.57295 14.4599 7.6144 14.5336 7.68819L15.0414 8.1967L16.335 6.90225C16.3715 6.86572 16.4149 6.83674 16.4627 6.81696C16.5104 6.79719 16.5616 6.78701 16.6132 6.78701C16.6649 6.78701 16.7161 6.79719 16.7638 6.81696C16.8115 6.83674 16.8549 6.86572 16.8915 6.90225C16.928 6.93879 16.957 6.98217 16.9767 7.0299C16.9965 7.07764 17.0067 7.12881 17.0067 7.18048C17.0067 7.23215 16.9965 7.28331 16.9767 7.33105C16.957 7.37879 16.928 7.42216 16.8915 7.4587Z" fill="white"/>
<path d="M12.3362 18.5766H6.39454C6.29032 18.5766 6.19036 18.5352 6.11667 18.4615C6.04297 18.3878 6.00157 18.2878 6.00157 18.1836C6.00157 18.0794 6.04297 17.9794 6.11667 17.9057C6.19036 17.832 6.29032 17.7906 6.39454 17.7906H10.9396C10.9231 17.7616 10.898 17.7388 10.883 17.7081L10.5317 17.0047H9.14532C8.84657 17.0041 8.55412 16.9188 8.302 16.7585C8.04989 16.5982 7.84847 16.3696 7.7212 16.0993C7.61616 15.8687 7.56865 15.6161 7.58275 15.3631C7.59685 15.1101 7.67214 14.8644 7.80215 14.6469H6.52579C6.23578 14.6469 6.00157 14.4708 6.00157 14.2539C6.00157 14.037 6.23578 13.861 6.52579 13.861H8.4089L11.0284 10.7172H6.39454C6.29032 10.7172 6.19036 10.6758 6.11667 10.6021C6.04297 10.5284 6.00157 10.4285 6.00157 10.3242C6.00157 10.22 6.04297 10.1201 6.11667 10.0464C6.19036 9.97266 6.29032 9.93126 6.39454 9.93126H10.9923C10.8178 9.43848 10.7172 8.91111 10.7172 8.35938C10.7172 7.80765 10.8178 7.28029 10.9923 6.78751H6.39454C6.29032 6.78751 6.19036 6.74611 6.11667 6.67241C6.04297 6.59871 6.00157 6.49876 6.00157 6.39454C6.00157 6.29032 6.04297 6.19036 6.11667 6.11667C6.19036 6.04297 6.29032 6.00157 6.39454 6.00157H11.3554C12.1728 4.59474 13.692 3.64375 15.4328 3.64375V1.28594C15.4328 1.07749 15.35 0.877588 15.2026 0.730196C15.0552 0.582804 14.8553 0.5 14.6469 0.5H12.9147L11.2972 3.4402C11.2633 3.50183 11.2135 3.55323 11.1529 3.58904C11.0924 3.62485 11.0233 3.64374 10.953 3.64375H5.76579C5.69544 3.64374 5.62639 3.62485 5.56583 3.58904C5.50528 3.55323 5.45545 3.50183 5.42155 3.4402L3.80409 0.5H1.28594C1.07749 0.5 0.877588 0.582804 0.730196 0.730196C0.582804 0.877588 0.5 1.07749 0.5 1.28594V21.7203C0.5 21.9288 0.582804 22.1287 0.730196 22.2761C0.877588 22.4235 1.07749 22.5063 1.28594 22.5063H14.6469C14.8553 22.5063 15.0552 22.4235 15.2026 22.2761C15.35 22.1287 15.4328 21.9288 15.4328 21.7203V13.6582L13.7336 17.6232C13.6153 17.8984 13.421 18.1342 13.1735 18.3031C12.9261 18.4719 12.6356 18.5668 12.3362 18.5766ZM5.10088 16.89L3.52901 18.4618C3.49261 18.4986 3.44928 18.5278 3.40152 18.5478C3.35377 18.5677 3.30253 18.5779 3.25078 18.5779C3.19904 18.5779 3.1478 18.5677 3.10005 18.5478C3.05229 18.5278 3.00896 18.4986 2.97256 18.4618L2.18662 17.6759C2.15009 17.6394 2.1211 17.596 2.10133 17.5482C2.08156 17.5005 2.07138 17.4493 2.07138 17.3977C2.07138 17.346 2.08156 17.2948 2.10133 17.2471C2.1211 17.1994 2.15009 17.156 2.18662 17.1195C2.22316 17.0829 2.26654 17.0539 2.31427 17.0342C2.36201 17.0144 2.41318 17.0042 2.46485 17.0042C2.51652 17.0042 2.56768 17.0144 2.61542 17.0342C2.66316 17.0539 2.70653 17.0829 2.74307 17.1195L3.25078 17.628L4.54444 16.3335C4.58098 16.297 4.62435 16.268 4.67209 16.2482C4.71983 16.2284 4.77099 16.2183 4.82266 16.2183C4.87433 16.2183 4.9255 16.2284 4.97323 16.2482C5.02097 16.268 5.06435 16.297 5.10088 16.3335C5.13742 16.3701 5.1664 16.4134 5.18618 16.4612C5.20595 16.5089 5.21613 16.5601 5.21613 16.6117C5.21613 16.6634 5.20595 16.7146 5.18618 16.7623C5.1664 16.81 5.13742 16.8534 5.10088 16.89ZM5.10088 12.9603L3.52901 14.5321C3.49261 14.5689 3.44928 14.5981 3.40152 14.6181C3.35377 14.638 3.30253 14.6483 3.25078 14.6483C3.19904 14.6483 3.1478 14.638 3.10005 14.6181C3.05229 14.5981 3.00896 14.5689 2.97256 14.5321L2.18662 13.7462C2.15009 13.7097 2.1211 13.6663 2.10133 13.6186C2.08156 13.5708 2.07138 13.5197 2.07138 13.468C2.07138 13.4163 2.08156 13.3651 2.10133 13.3174C2.1211 13.2697 2.15009 13.2263 2.18662 13.1898C2.22316 13.1532 2.26654 13.1242 2.31427 13.1045C2.36201 13.0847 2.41318 13.0745 2.46485 13.0745C2.51652 13.0745 2.56768 13.0847 2.61542 13.1045C2.66316 13.1242 2.70653 13.1532 2.74307 13.1898L3.25078 13.6983L4.54444 12.4038C4.58098 12.3673 4.62435 12.3383 4.67209 12.3185C4.71983 12.2988 4.77099 12.2886 4.82266 12.2886C4.87433 12.2886 4.9255 12.2988 4.97323 12.3185C5.02097 12.3383 5.06435 12.3673 5.10088 12.4038C5.13742 12.4404 5.1664 12.4837 5.18618 12.5315C5.20595 12.5792 5.21613 12.6304 5.21613 12.682C5.21613 12.7337 5.20595 12.7849 5.18618 12.8326C5.1664 12.8804 5.13742 12.9237 5.10088 12.9603ZM5.10088 9.03057L3.52901 10.6025C3.49261 10.6392 3.44928 10.6684 3.40152 10.6884C3.35377 10.7083 3.30253 10.7186 3.25078 10.7186C3.19904 10.7186 3.1478 10.7083 3.10005 10.6884C3.05229 10.6684 3.00896 10.6392 2.97256 10.6025L2.18662 9.81651C2.15009 9.77998 2.1211 9.7366 2.10133 9.68886C2.08156 9.64113 2.07138 9.58996 2.07138 9.53829C2.07138 9.48662 2.08156 9.43546 2.10133 9.38772C2.1211 9.33998 2.15009 9.29661 2.18662 9.26007C2.22316 9.22353 2.26654 9.19455 2.31427 9.17478C2.36201 9.155 2.41318 9.14483 2.46485 9.14483C2.51652 9.14483 2.56768 9.155 2.61542 9.17478C2.66316 9.19455 2.70653 9.22353 2.74307 9.26007L3.25078 9.76857L4.54444 8.47413C4.61823 8.40034 4.71831 8.35889 4.82266 8.35889C4.92701 8.35889 5.02709 8.40034 5.10088 8.47413C5.17467 8.54792 5.21613 8.648 5.21613 8.75235C5.21613 8.85671 5.17467 8.95679 5.10088 9.03057ZM5.10088 5.10088L3.52901 6.67276C3.49261 6.70954 3.44928 6.73875 3.40152 6.75868C3.35377 6.77861 3.30253 6.78887 3.25078 6.78887C3.19904 6.78887 3.1478 6.77861 3.10005 6.75868C3.05229 6.73875 3.00896 6.70954 2.97256 6.67276L2.18662 5.88682C2.15009 5.85029 2.1211 5.80691 2.10133 5.75917C2.08156 5.71143 2.07138 5.66027 2.07138 5.6086C2.07138 5.55693 2.08156 5.50576 2.10133 5.45803C2.1211 5.41029 2.15009 5.36691 2.18662 5.33038C2.22316 5.29384 2.26654 5.26486 2.31427 5.24508C2.36201 5.22531 2.41318 5.21513 2.46485 5.21513C2.51652 5.21513 2.56768 5.22531 2.61542 5.24508C2.66316 5.26486 2.70653 5.29384 2.74307 5.33038L3.25078 5.83888L4.54444 4.54444C4.61823 4.47065 4.71831 4.4292 4.82266 4.4292C4.92701 4.4292 5.02709 4.47065 5.10088 4.54444C5.17467 4.61823 5.21613 4.71831 5.21613 4.82266C5.21613 4.92701 5.17467 5.02709 5.10088 5.10088Z" fill="white"/>
</svg>
