<svg width="21" height="20" viewBox="0 0 21 20" fill="none" xmlns="http://www.w3.org/2000/svg">
<path d="M11.9436 8.50649C11.8872 8.44893 11.8447 8.37933 11.8193 8.30294C11.7938 8.22655 11.7861 8.14537 11.7966 8.06554L12.164 5.30439C12.1847 5.19151 12.2355 5.0863 12.311 4.99993L16.8674 0.464502C17.013 0.317343 17.1863 0.200517 17.3773 0.120785C17.5684 0.0410537 17.7733 0 17.9803 0C18.1873 0 18.3922 0.0410537 18.5833 0.120785C18.7743 0.200517 18.9476 0.317343 19.0932 0.464502L19.9855 1.35689C20.1327 1.50246 20.2495 1.67577 20.3293 1.86679C20.409 2.05782 20.45 2.26275 20.45 2.46975C20.45 2.67674 20.409 2.88168 20.3293 3.0727C20.2495 3.26373 20.1327 3.43704 19.9855 3.58261L15.4396 8.11804C15.3587 8.20143 15.2508 8.25349 15.1352 8.26502L12.395 8.65347H12.3215C12.1814 8.65439 12.0462 8.60182 11.9436 8.50649ZM7.69159 10.6587H2.59974C2.04336 10.6604 1.51025 10.8821 1.11683 11.2755C0.723417 11.669 0.501662 12.2021 0.5 12.7584V17.8503C0.501662 18.4067 0.723417 18.9398 1.11683 19.3332C1.51025 19.7266 2.04336 19.9484 2.59974 19.95H7.69159C8.24797 19.9484 8.78108 19.7266 9.17449 19.3332C9.56791 18.9398 9.78967 18.4067 9.79133 17.8503V12.7584C9.78939 12.2021 9.56737 11.6691 9.17375 11.2759C8.78014 10.8826 8.24692 10.6611 7.69054 10.6598L7.69159 10.6587ZM18.3477 10.6587H13.2559C12.6995 10.6604 12.1664 10.8821 11.773 11.2755C11.3796 11.669 11.1578 12.2021 11.1562 12.7584V17.8503C11.1578 18.4067 11.3796 18.9398 11.773 19.3332C12.1664 19.7266 12.6995 19.9484 13.2559 19.95H18.3477C18.9041 19.9484 19.4372 19.7266 19.8307 19.3332C20.2241 18.9398 20.4458 18.4067 20.4475 17.8503V12.7584C20.4455 12.2023 20.2237 11.6694 19.8303 11.2762C19.4369 10.883 18.9039 10.6614 18.3477 10.6598V10.6587ZM7.69054 0.00256015H2.59974C2.04336 0.0042218 1.51025 0.225977 1.11683 0.619394C0.723417 1.01281 0.501662 1.54592 0.5 2.1023V7.19415C0.501662 7.75053 0.723417 8.28364 1.11683 8.67705C1.51025 9.07047 2.04336 9.29223 2.59974 9.29389H7.69159C8.24797 9.29223 8.78108 9.07047 9.17449 8.67705C9.56791 8.28364 9.78967 7.75053 9.79133 7.19415V2.1023C9.78967 1.54574 9.56777 1.01247 9.17412 0.619025C8.78048 0.225578 8.2471 0.0039449 7.69054 0.00256015Z" fill="white"/>
</svg>
