<svg width="23" height="23" viewBox="0 0 23 23" fill="none" xmlns="http://www.w3.org/2000/svg">
<path d="M13.5625 0H3.02083C1.6275 0 0.5 1.17875 0.5 2.63542V17.4896C0.5 18.9463 1.6275 20.125 3.02083 20.125H9.78583L9.9875 18.9463C10.0792 18.4096 10.3175 17.9304 10.6842 17.5375L16.0833 11.9025V2.63542C16.0833 1.17875 14.9558 0 13.5625 0ZM4.16667 3.83333H7.83333C8.3375 3.83333 8.75 4.26458 8.75 4.79167C8.75 5.31875 8.3375 5.75 7.83333 5.75H4.16667C3.6625 5.75 3.25 5.31875 3.25 4.79167C3.25 4.26458 3.6625 3.83333 4.16667 3.83333ZM8.75 13.4167H4.16667C3.6625 13.4167 3.25 12.9854 3.25 12.4583C3.25 11.9313 3.6625 11.5 4.16667 11.5H8.75C9.25417 11.5 9.66667 11.9313 9.66667 12.4583C9.66667 12.9854 9.25417 13.4167 8.75 13.4167ZM12.4167 9.58333H4.16667C3.6625 9.58333 3.25 9.15208 3.25 8.625C3.25 8.09792 3.6625 7.66667 4.16667 7.66667H12.4167C12.9208 7.66667 13.3333 8.09792 13.3333 8.625C13.3333 9.15208 12.9208 9.58333 12.4167 9.58333ZM11.984 23C11.8835 23.0003 11.7841 22.9774 11.693 22.9331C11.6019 22.8888 11.5212 22.824 11.4566 22.7435C11.3921 22.6629 11.3453 22.5685 11.3195 22.4669C11.2937 22.3654 11.2896 22.2591 11.3075 22.1557L11.7933 19.2759C11.818 19.1308 11.8845 18.997 11.984 18.8926L18.7903 11.7779C19.6263 10.902 20.4476 11.1387 20.8968 11.6083L22.0307 12.7938C22.1796 12.9495 22.2978 13.1344 22.3785 13.3379C22.4591 13.5413 22.5006 13.7594 22.5006 13.9797C22.5006 14.1999 22.4591 14.418 22.3785 14.6215C22.2978 14.825 22.1796 15.0099 22.0307 15.1656L15.2244 22.2813C15.125 22.386 14.9969 22.4557 14.8578 22.4806L12.1032 22.9885C12.0639 22.9961 12.024 23 11.984 23Z" fill="white"/>
</svg>
