<svg width="23" height="23" viewBox="0 0 23 23" fill="none" xmlns="http://www.w3.org/2000/svg">
<path d="M8.97911 0H2.10411C1.21955 0 0.5 0.752262 0.5 1.67702V5.98952C0.5 6.91446 1.21955 7.66673 2.10411 7.66673H8.97911C9.86384 7.66673 10.5834 6.91446 10.5834 5.98952V1.67702C10.5834 0.752262 9.86384 0 8.97911 0ZM8.97911 9.58327H2.10411C1.21955 9.58327 0.5 10.3355 0.5 11.2605V21.323C0.5 22.2477 1.21955 23 2.10411 23H8.97911C9.86384 23 10.5834 22.2477 10.5834 21.323V11.2605C10.5834 10.3355 9.86384 9.58327 8.97911 9.58327ZM20.8959 15.3333H14.0209C13.1362 15.3333 12.4166 16.0855 12.4166 17.0105V21.323C12.4166 22.2477 13.1362 23 14.0209 23H20.8959C21.7804 23 22.5 22.2477 22.5 21.323V17.0105C22.5 16.0855 21.7804 15.3333 20.8959 15.3333ZM20.8959 0H14.0209C13.1362 0 12.4166 0.752262 12.4166 1.67702V11.7395C12.4166 12.6645 13.1362 13.4167 14.0209 13.4167H20.8959C21.7804 13.4167 22.5 12.6645 22.5 11.7395V1.67702C22.5 0.752262 21.7804 0 20.8959 0Z" fill="white"/>
</svg>
