<svg width="18" height="18" viewBox="0 0 18 18" fill="none" xmlns="http://www.w3.org/2000/svg">
<path d="M6.57694 0H1.73077C1.27191 0.000549644 0.832002 0.183075 0.507539 0.507539C0.183075 0.832002 0.000549644 1.27191 0 1.73077V6.57694C0.000549644 7.0358 0.183075 7.47571 0.507539 7.80017C0.832002 8.12463 1.27191 8.30716 1.73077 8.30771H6.57694C7.0358 8.30716 7.47571 8.12463 7.80017 7.80017C8.12463 7.47571 8.30716 7.0358 8.30771 6.57694V1.73077C8.30716 1.27191 8.12463 0.832002 7.80017 0.507539C7.47571 0.183075 7.0358 0.000549644 6.57694 0ZM7.6154 6.57694C7.6154 6.85235 7.50599 7.11649 7.31124 7.31124C7.11649 7.50599 6.85235 7.6154 6.57694 7.6154H1.73077C1.45535 7.6154 1.19122 7.50599 0.996468 7.31124C0.801718 7.11649 0.692309 6.85235 0.692309 6.57694V1.73077C0.692309 1.45535 0.801718 1.19122 0.996468 0.996468C1.19122 0.801718 1.45535 0.692309 1.73077 0.692309H6.57694C6.85235 0.692309 7.11649 0.801718 7.31124 0.996468C7.50599 1.19122 7.6154 1.45535 7.6154 1.73077V6.57694ZM16.2693 0H11.4231C10.9642 0.000549644 10.5243 0.183075 10.1999 0.507539C9.8754 0.832002 9.69287 1.27191 9.69233 1.73077V6.57694C9.69287 7.0358 9.8754 7.47571 10.1999 7.80017C10.5243 8.12463 10.9642 8.30716 11.4231 8.30771H16.2693C16.7281 8.30716 17.168 8.12463 17.4925 7.80017C17.817 7.47571 17.9995 7.0358 18 6.57694V1.73077C17.9995 1.27191 17.817 0.832002 17.4925 0.507539C17.168 0.183075 16.7281 0.000549644 16.2693 0ZM17.3077 6.57694C17.3077 6.85235 17.1983 7.11649 17.0036 7.31124C16.8088 7.50599 16.5447 7.6154 16.2693 7.6154H11.4231C11.1477 7.6154 10.8835 7.50599 10.6888 7.31124C10.494 7.11649 10.3846 6.85235 10.3846 6.57694V1.73077C10.3846 1.45535 10.494 1.19122 10.6888 0.996468C10.8835 0.801718 11.1477 0.692309 11.4231 0.692309H16.2693C16.5447 0.692309 16.8088 0.801718 17.0036 0.996468C17.1983 1.19122 17.3077 1.45535 17.3077 1.73077V6.57694ZM6.57694 9.69233H1.73077C1.27191 9.69287 0.832002 9.8754 0.507539 10.1999C0.183075 10.5243 0.000549644 10.9642 0 11.4231V16.2693C0.000549644 16.7281 0.183075 17.168 0.507539 17.4925C0.832002 17.817 1.27191 17.9995 1.73077 18H6.57694C7.0358 17.9995 7.47571 17.817 7.80017 17.4925C8.12463 17.168 8.30716 16.7281 8.30771 16.2693V11.4231C8.30716 10.9642 8.12463 10.5243 7.80017 10.1999C7.47571 9.8754 7.0358 9.69287 6.57694 9.69233ZM7.6154 16.2693C7.6154 16.5447 7.50599 16.8088 7.31124 17.0036C7.11649 17.1983 6.85235 17.3077 6.57694 17.3077H1.73077C1.45535 17.3077 1.19122 17.1983 0.996468 17.0036C0.801718 16.8088 0.692309 16.5447 0.692309 16.2693V11.4231C0.692309 11.1477 0.801718 10.8835 0.996468 10.6888C1.19122 10.494 1.45535 10.3846 1.73077 10.3846H6.57694C6.85235 10.3846 7.11649 10.494 7.31124 10.6888C7.50599 10.8835 7.6154 11.1477 7.6154 11.4231V16.2693ZM13.8462 9.69233C13.0246 9.69233 12.2215 9.93595 11.5384 10.3924C10.8553 10.8488 10.3229 11.4976 10.0085 12.2566C9.69412 13.0156 9.61186 13.8508 9.77214 14.6566C9.93242 15.4623 10.328 16.2025 10.909 16.7834C11.4899 17.3643 12.23 17.7599 13.0358 17.9202C13.8416 18.0805 14.6768 17.9982 15.4358 17.6838C16.1948 17.3694 16.8436 16.837 17.3 16.1539C17.7564 15.4708 18 14.6677 18 13.8462C17.9988 12.7449 17.5608 11.689 16.7821 10.9103C16.0033 10.1315 14.9475 9.69352 13.8462 9.69233ZM13.8462 17.3077C13.1616 17.3077 12.4923 17.1047 11.923 16.7243C11.3538 16.344 10.9101 15.8034 10.6481 15.1709C10.3861 14.5383 10.3176 13.8423 10.4511 13.1709C10.5847 12.4994 10.9144 11.8826 11.3985 11.3985C11.8826 10.9144 12.4994 10.5847 13.1709 10.4511C13.8423 10.3176 14.5383 10.3861 15.1709 10.6481C15.8034 10.9101 16.344 11.3538 16.7243 11.923C17.1047 12.4923 17.3077 13.1616 17.3077 13.8462C17.3067 14.7639 16.9417 15.6438 16.2927 16.2927C15.6438 16.9417 14.7639 17.3067 13.8462 17.3077Z" fill="#333333"/>
</svg>
