<svg width="29" height="28" viewBox="0 0 29 28" fill="none" xmlns="http://www.w3.org/2000/svg">
<path d="M4.53449 11.4515L2.65625 11.0038C2.82764 10.2992 3.05492 9.60906 3.33597 8.93993L5.11938 9.67534C4.87754 10.2512 4.68197 10.8451 4.53449 11.4515ZM5.97925 8.01137L4.33405 7.00845C4.71733 6.39194 5.14841 5.80597 5.6234 5.25584L7.09137 6.49966C6.68171 6.9742 6.30988 7.47963 5.97925 8.01137ZM8.42703 5.17701L7.17136 3.72286C7.72687 3.25239 8.3184 2.82547 8.94063 2.44594L9.95304 4.07568C9.41635 4.40299 8.90614 4.7712 8.42703 5.17701ZM11.6324 3.22407L10.8901 1.45743C11.5656 1.17911 12.2621 0.954002 12.9732 0.78418L13.4255 2.6445C12.8134 2.7907 12.2138 2.98449 11.6324 3.22407Z" fill="white"/>
<path d="M15.3427 0.78418C14.9839 0.78418 14.6354 0.798059 14.2908 0.825455L14.4269 2.6632C14.7241 2.63956 15.0437 2.62756 15.3426 2.62756C21.5613 2.62756 26.6788 7.78229 26.6788 14.1182C26.6788 20.4543 21.5686 25.6089 15.3079 25.6089C9.46947 25.6089 4.64632 21.1258 4.02229 15.3826L4.58061 15.8159L5.68821 14.3527L3.60766 12.7388C3.43973 12.6086 3.23237 12.5416 3.02107 12.5493C2.80977 12.557 2.60769 12.6389 2.44941 12.781L0.5 14.5322L1.70878 15.911L2.19899 15.4707C2.8708 22.1904 8.493 27.4524 15.3068 27.4524C22.5717 27.4524 28.5 21.4708 28.5 14.1183C28.5 6.76581 22.5779 0.78418 15.3427 0.78418Z" fill="white"/>
<path d="M8.03906 19.6261L14.4963 23.1823L14.4986 15.6209L8.03906 11.5585V19.6261ZM16.6317 15.6208L16.6532 23.1854L23.116 19.6261V11.5552L16.6317 15.6208ZM9.30043 9.56472L15.5654 13.5042L21.8516 9.56478L15.5653 6.11768L9.30043 9.56472Z" fill="white"/>
</svg>
