<svg width="25" height="23" viewBox="0 0 25 23" fill="none" xmlns="http://www.w3.org/2000/svg">
<path d="M22.5 6.57861V13.1911C22.5 13.7463 22.3922 14.2961 22.1828 14.8091C21.9734 15.322 21.6665 15.7881 21.2796 16.1807C20.8927 16.5733 20.4334 16.8847 19.9278 17.0972C19.4223 17.3097 18.8805 17.4191 18.3333 17.4191H7.5V18.2646C7.50198 18.9368 7.76601 19.5809 8.23442 20.0562C8.70283 20.5315 9.33757 20.7994 10 20.8014H19.6083C19.7387 20.8031 19.8669 20.8349 19.9833 20.8944L22.9583 22.3996C23.0747 22.4591 23.203 22.4909 23.3333 22.4926C23.4893 22.4925 23.6421 22.4486 23.775 22.3657C23.8951 22.2896 23.9941 22.1836 24.0626 22.0579C24.1311 21.9321 24.167 21.7907 24.1667 21.647V8.96317C24.1652 8.4398 24.0043 7.92969 23.7059 7.50279C23.4075 7.07588 22.9863 6.75307 22.5 6.57861Z" fill="white"/>
<path d="M20.8359 13.1911V3.04409C20.8359 2.3713 20.5725 1.72606 20.1037 1.25033C19.6349 0.77459 18.999 0.507324 18.3359 0.507324H3.33594C2.6729 0.507324 2.03701 0.77459 1.56817 1.25033C1.09933 1.72606 0.835938 2.3713 0.835938 3.04409V18.2647C0.835879 18.424 0.880187 18.5801 0.963757 18.715C1.04733 18.8499 1.16676 18.9581 1.30829 19.0271C1.44981 19.0961 1.60768 19.1232 1.7637 19.1051C1.91971 19.0871 2.06753 19.0247 2.1901 18.9251L5.9001 15.9131C6.0475 15.7935 6.23054 15.7282 6.41927 15.7279H18.3359C18.999 15.7279 19.6349 15.4606 20.1037 14.9849C20.5725 14.5092 20.8359 13.8639 20.8359 13.1911ZM11.6026 11.8213C11.5652 11.9262 11.5055 12.0215 11.4277 12.1004C11.3499 12.1793 11.256 12.2399 11.1526 12.2779C11.0528 12.3225 10.945 12.3455 10.8359 12.3455C10.7269 12.3455 10.6191 12.3225 10.5193 12.2779C10.4159 12.2399 10.3219 12.1793 10.2442 12.1004C10.1664 12.0215 10.1067 11.9262 10.0693 11.8213C10.0266 11.7196 10.0039 11.6105 10.0026 11.5C10.0058 11.2761 10.0921 11.0617 10.2443 10.8996C10.3253 10.825 10.4183 10.7649 10.5193 10.722C10.6187 10.676 10.7267 10.6522 10.8359 10.6522C10.9452 10.6522 11.0532 10.676 11.1526 10.722C11.2536 10.7649 11.3466 10.825 11.4276 10.8996C11.5811 11.0608 11.6676 11.2758 11.6693 11.5C11.668 11.6105 11.6453 11.7196 11.6026 11.8213ZM11.7618 8.86174C11.7164 8.88933 11.6793 8.92895 11.6545 8.97633C11.6297 9.02371 11.6181 9.07705 11.6209 9.13063C11.6209 9.3549 11.5331 9.56997 11.3769 9.72855C11.2206 9.88713 11.0086 9.97622 10.7876 9.97622C10.5666 9.97622 10.3546 9.88713 10.1983 9.72855C10.0421 9.56997 9.95427 9.3549 9.95427 9.13063C9.9486 8.74264 10.0564 8.36164 10.2641 8.03579C10.4717 7.70994 10.7699 7.45387 11.1209 7.29993C11.2962 7.22618 11.4433 7.09709 11.5406 6.93179C11.6378 6.7665 11.68 6.5738 11.6608 6.38228C11.6416 6.19076 11.5622 6.0106 11.4341 5.86853C11.3061 5.72646 11.1364 5.63003 10.9501 5.59354C10.7425 5.55512 10.5281 5.59256 10.3451 5.6992C10.162 5.80584 10.0221 5.97481 9.9501 6.17615C9.87457 6.38555 9.72058 6.55621 9.52166 6.65096C9.32273 6.74572 9.09496 6.75691 8.88794 6.68209C8.68092 6.60728 8.51141 6.45252 8.4163 6.25149C8.32119 6.05047 8.30818 5.81946 8.3801 5.60876C8.52183 5.20225 8.76147 4.83814 9.07721 4.54955C9.39295 4.26096 9.77478 4.05704 10.188 3.95634C10.6012 3.85563 11.0326 3.86134 11.4431 3.97295C11.8536 4.08455 12.23 4.29851 12.5382 4.59536C12.8465 4.89222 13.0767 5.26254 13.2079 5.67267C13.3391 6.08279 13.3672 6.51969 13.2896 6.94365C13.2121 7.3676 13.0313 7.76515 12.7637 8.10014C12.4961 8.43513 12.1503 8.69693 11.7576 8.86174H11.7618Z" fill="white"/>
</svg>
