<svg width="23" height="22" viewBox="0 0 23 22" fill="none" xmlns="http://www.w3.org/2000/svg">
<path d="M7.14816 6.69101C7.25953 7.25334 7.48114 7.78805 7.80022 8.26428C7.84143 8.32603 7.86281 8.39889 7.8615 8.47311C7.8602 8.54734 7.83628 8.6194 7.79293 8.67966L7.27361 9.40904L7.86842 10.0035L8.59524 9.48198C8.65551 9.4389 8.72747 9.4152 8.80155 9.41402C8.87562 9.41285 8.94829 9.43427 9.0099 9.47542C9.48605 9.79432 10.0206 10.0158 10.5828 10.1271C10.6555 10.1415 10.722 10.1777 10.7736 10.2309C10.8252 10.284 10.8594 10.3516 10.8716 10.4247L11.0175 11.3062H11.8585L12.0044 10.4247C12.0166 10.3516 12.0508 10.284 12.1024 10.2309C12.154 10.1777 12.2205 10.1415 12.2932 10.1271C12.8554 10.0158 13.3899 9.79432 13.8661 9.47542C13.9281 9.43346 14.0015 9.41158 14.0763 9.41276C14.1511 9.41393 14.2238 9.4381 14.2844 9.48198L15.0112 10.0013L15.606 9.40686L15.0867 8.67966C15.0437 8.61943 15.0201 8.54754 15.0189 8.47354C15.0177 8.39955 15.0391 8.32694 15.0802 8.26538C15.3992 7.78914 15.6208 7.25443 15.7322 6.69211C15.7467 6.6195 15.7829 6.55302 15.836 6.50149C15.8892 6.44996 15.9568 6.41583 16.0298 6.40364L16.9109 6.25776V5.4146L16.0298 5.26873C15.9568 5.25653 15.8892 5.2224 15.836 5.17087C15.7829 5.11935 15.7467 5.05286 15.7322 4.98026C15.6209 4.41757 15.399 3.88257 15.0794 3.40626C15.0381 3.34447 15.0167 3.27154 15.018 3.19724C15.0193 3.12294 15.0433 3.05081 15.0867 2.99051L15.606 2.26295L15.0112 1.66851L14.2844 2.18819C14.2241 2.23127 14.1522 2.25498 14.0781 2.25615C14.004 2.25732 13.9313 2.23591 13.8697 2.19476C13.3937 1.87568 12.8591 1.65418 12.2968 1.54306C12.2242 1.52866 12.1576 1.49248 12.106 1.43932C12.0544 1.38615 12.0202 1.31854 12.008 1.24547L11.8603 0.364746H11.0193L10.8735 1.2462C10.8612 1.31927 10.8271 1.38688 10.7755 1.44005C10.7239 1.49321 10.6573 1.52939 10.5846 1.54379C10.022 1.65477 9.48702 1.87628 9.01063 2.19549C8.94887 2.23669 8.87602 2.25807 8.80179 2.25677C8.72757 2.25547 8.65551 2.23154 8.59524 2.18819L7.86915 1.6696L7.27434 2.26405L7.79293 2.99051C7.83601 3.05078 7.85971 3.12274 7.86088 3.19681C7.86206 3.27089 7.84064 3.34356 7.79949 3.40516C7.48029 3.8812 7.25867 4.41582 7.14743 4.97807C7.13297 5.05067 7.09675 5.11716 7.04359 5.16868C6.99044 5.22021 6.92286 5.25434 6.84984 5.26654L5.96875 5.41241V6.25339L6.84984 6.39926C6.92344 6.41154 6.9915 6.44609 7.04485 6.49826C7.09819 6.55043 7.13425 6.61771 7.14816 6.69101ZM11.4398 2.91757C12.0169 2.91757 12.5809 3.08868 13.0607 3.40926C13.5405 3.72984 13.9144 4.1855 14.1353 4.7186C14.3561 5.25171 14.4139 5.83832 14.3013 6.40427C14.1887 6.97021 13.9108 7.49006 13.5028 7.89808C13.0948 8.3061 12.5749 8.58397 12.009 8.69654C11.4431 8.80912 10.8564 8.75134 10.3233 8.53052C9.79023 8.3097 9.33458 7.93576 9.014 7.45597C8.69342 6.97619 8.52231 6.41212 8.52231 5.83509C8.52317 5.06158 8.83083 4.32 9.37779 3.77305C9.92474 3.2261 10.6663 2.91844 11.4398 2.91757Z" fill="white"/>
<path d="M11.4381 8.02325C12.6466 8.02325 13.6263 7.04358 13.6263 5.83511C13.6263 4.62663 12.6466 3.64697 11.4381 3.64697C10.2297 3.64697 9.25 4.62663 9.25 5.83511C9.25 7.04358 10.2297 8.02325 11.4381 8.02325Z" fill="white"/>
<path d="M19.0992 6.56441H21.2873V2.18814H22.3814L20.1932 0L18.0051 2.18814H19.0992V6.56441ZM4.87627 9.48193H3.7822V5.10565H1.59407V9.48193H0.5L2.68814 11.6701L4.87627 9.48193ZM8.15848 16.7757H4.14689V21.5167H11.076V14.0092L8.41631 16.6689C8.34794 16.7373 8.25519 16.7757 8.15848 16.7757ZM12.321 13.4935L14.8739 16.0463H21.501L18.9482 13.4935H12.321Z" fill="white"/>
<path d="M10.5628 13.4937H3.93564L1.38281 16.0465H8.00995L10.5628 13.4937ZM14.4675 16.669L11.8078 14.0093V21.5168H18.7369V16.7759H14.7253C14.6286 16.7758 14.5359 16.7374 14.4675 16.669Z" fill="white"/>
</svg>
