<svg width="23" height="23" viewBox="0 0 23 23" fill="none" xmlns="http://www.w3.org/2000/svg">
<g clip-path="url(#clip0_3936_13550)">
<path d="M3.97117 9.6184C3.97117 9.70173 3.9381 9.78164 3.87922 9.8406C3.82034 9.89957 3.74047 9.93275 3.65715 9.93287H1.86005C1.8163 9.93301 1.77302 9.92383 1.73309 9.90595C1.67737 9.88138 1.63 9.84114 1.59674 9.79012C1.56348 9.73911 1.54577 9.67952 1.54577 9.61862C1.54577 9.55772 1.56348 9.49814 1.59674 9.44712C1.63 9.39611 1.67737 9.35587 1.73309 9.3313C1.77302 9.31341 1.8163 9.30424 1.86005 9.30438H3.65715C3.7404 9.30447 3.82022 9.33759 3.87909 9.39646C3.93796 9.45533 3.97107 9.53515 3.97117 9.6184ZM11.2614 4.33836C11.3107 4.44737 11.3559 4.55862 11.3969 4.67212C11.5973 5.22182 11.6995 5.80248 11.6988 6.38757C11.6988 6.48985 11.6952 6.59617 11.688 6.71236C11.683 6.7921 11.6478 6.86692 11.5895 6.9216C11.5312 6.97627 11.4543 7.00669 11.3744 7.00664H10.575L12.5408 8.97241L14.5061 7.00664H13.7081C13.6652 7.00666 13.6228 6.99791 13.5835 6.98094C13.5442 6.96396 13.5087 6.93912 13.4794 6.90795C13.45 6.87677 13.4273 6.83991 13.4127 6.79964C13.3981 6.75937 13.3919 6.71654 13.3945 6.67378C13.4026 6.53875 13.4066 6.42167 13.4066 6.3149C13.407 5.82811 13.3427 5.34342 13.2155 4.87354C13.2142 4.86906 13.2128 4.86457 13.2115 4.85964C12.982 4.02433 12.559 3.25483 11.9767 2.61344C11.3945 1.97206 10.6694 1.47684 9.86007 1.16789C9.05079 0.858942 8.18011 0.744956 7.31857 0.835166C6.45703 0.925375 5.62885 1.21724 4.90112 1.68713C6.09943 1.23456 7.42537 1.25699 8.60769 1.74983C9.79 2.24267 10.7393 3.16867 11.2614 4.33836ZM8.76044 13.5006L8.73128 13.4831L8.72365 13.4777L8.08125 13.0704C8.01406 13.3231 7.88342 13.5544 7.70174 13.7424L9.1884 14.6006L11.5207 13.2543L10.2781 12.5366V12.6411C10.2782 12.8185 10.2313 12.9927 10.142 13.146C10.0527 13.2993 9.92437 13.4262 9.77001 13.5136C9.61565 13.601 9.44085 13.6459 9.26347 13.6436C9.08608 13.6413 8.91249 13.592 8.76044 13.5006ZM15.1095 15.2775C15.0542 15.2773 15 15.2628 14.952 15.2353L12.4632 13.798V21.9738L16.0027 19.9304L19.8561 17.704V12.585L15.2665 15.2353C15.2187 15.2627 15.1646 15.2773 15.1095 15.2775ZM20.1702 8.98542L12.7772 13.2543L15.1095 14.6006L20.0185 11.7663C20.0193 11.7656 20.0202 11.7649 20.0212 11.7645L22.5024 10.3321L20.1702 8.98542ZM19.5421 8.62295L13.9674 5.40469C14.0123 5.70601 14.0348 6.01025 14.0346 6.3149C14.0346 6.33553 14.0346 6.35707 14.0342 6.3786H15.2643C15.3264 6.3786 15.3871 6.39701 15.4387 6.43152C15.4904 6.46602 15.5306 6.51507 15.5544 6.57245C15.5782 6.62983 15.5844 6.69297 15.5723 6.75389C15.5601 6.81481 15.5302 6.87076 15.4863 6.91468L12.7629 9.63859C12.7039 9.69748 12.6239 9.73056 12.5406 9.73056C12.4572 9.73056 12.3773 9.69748 12.3183 9.63859L9.59484 6.91468C9.55091 6.87076 9.521 6.81481 9.50888 6.75389C9.49677 6.69297 9.50298 6.62983 9.52675 6.57245C9.55052 6.51507 9.59077 6.46602 9.64242 6.43152C9.69406 6.39701 9.75478 6.3786 9.81689 6.3786H11.0707C11.0701 5.9415 11.0042 5.50694 10.8751 5.08932L7.02883 7.30945C7.28215 7.3837 7.51208 7.52192 7.69648 7.7108C7.88089 7.89968 8.01355 8.13286 8.0817 8.38789L8.74608 7.9671L8.76088 7.95813C8.91294 7.86694 9.08647 7.81774 9.26376 7.81555C9.44105 7.81336 9.61574 7.85825 9.77001 7.94565C9.92428 8.03304 10.0526 8.15981 10.1418 8.31301C10.2311 8.46621 10.2781 8.64035 10.2781 8.81765V11.8112L12.1487 12.8914L17.1206 10.0208L19.5421 8.62295ZM4.4404 13.5822H1.38094C1.14122 13.5821 0.911368 13.4868 0.741818 13.3173C0.572267 13.1478 0.476871 12.918 0.476562 12.6783V8.78041C0.476871 8.54069 0.572267 8.31088 0.741818 8.14142C0.911368 7.97195 1.14122 7.87667 1.38094 7.87648H1.6344C1.50363 7.71269 1.40963 7.52268 1.35878 7.31934C1.30793 7.11601 1.30141 6.90412 1.33968 6.69805C1.37795 6.49198 1.46011 6.29656 1.58057 6.12504C1.70104 5.95353 1.85699 5.80993 2.03785 5.70401C2.21871 5.59809 2.42024 5.53232 2.62876 5.51116C2.83729 5.49001 3.04792 5.51396 3.24637 5.58139C3.44482 5.64883 3.62644 5.75817 3.7789 5.90199C3.93136 6.04581 4.05109 6.22075 4.12997 6.41494C4.33537 6.21691 4.60611 6.10085 4.89116 6.08863C5.17621 6.07641 5.45589 6.16888 5.67748 6.3486C5.89908 6.52833 6.04728 6.78289 6.09416 7.06433C6.14105 7.34576 6.08337 7.63463 5.932 7.87648H6.60087C6.84052 7.87677 7.07027 7.97209 7.23973 8.14155C7.40919 8.31101 7.50452 8.54076 7.5048 8.78041V9.49683L9.07625 8.50138L9.08298 8.49735C9.13871 8.46425 9.202 8.446 9.2668 8.44435C9.3316 8.44271 9.39573 8.45771 9.45308 8.48792C9.51274 8.51983 9.5626 8.56737 9.59729 8.62546C9.63199 8.68355 9.65021 8.74999 9.65001 8.81765V12.6411C9.64993 12.7402 9.61062 12.8352 9.54068 12.9054C9.47075 12.9756 9.37586 13.0152 9.27678 13.0157C9.20832 13.0154 9.1412 12.9967 9.08253 12.9614C9.08074 12.96 9.07849 12.9587 9.07625 12.9573L7.5048 11.9619V12.6783C7.50421 12.9179 7.40878 13.1474 7.23939 13.3168C7.07 13.4862 6.84042 13.5816 6.60087 13.5822H4.4404ZM7.5048 11.2186L9.02197 12.1795V9.27926L7.5048 10.2402V11.2186ZM4.39958 7.25696C4.39934 7.37295 4.43639 7.48594 4.50528 7.57926C4.57416 7.67258 4.67123 7.74128 4.78214 7.77522C4.89305 7.80915 5.01194 7.80653 5.12125 7.76774C5.23055 7.72894 5.32449 7.65603 5.3892 7.55977L5.38965 7.55932C5.43696 7.48915 5.46716 7.40887 5.47783 7.32491C5.4885 7.24096 5.47933 7.15567 5.45106 7.0759C5.42279 6.99613 5.37621 6.9241 5.31507 6.86559C5.25392 6.80709 5.1799 6.76373 5.09896 6.73901C5.01802 6.71429 4.93241 6.7089 4.84901 6.72326C4.76561 6.73762 4.68673 6.77134 4.61872 6.82171C4.55071 6.87208 4.49546 6.93769 4.4574 7.01328C4.41934 7.08887 4.39954 7.17233 4.39958 7.25696ZM1.94304 6.96582C1.94313 7.13069 1.99211 7.29183 2.08379 7.42886C2.17547 7.56589 2.30573 7.67265 2.45809 7.73564C2.61046 7.79863 2.77808 7.81502 2.93975 7.78274C3.10143 7.75045 3.24991 7.67094 3.36639 7.55427C3.48288 7.43759 3.56215 7.28899 3.59417 7.12726C3.62619 6.96553 3.60953 6.79794 3.5463 6.64568C3.48306 6.49342 3.37609 6.36333 3.23891 6.27187C3.10173 6.18041 2.94051 6.13169 2.77564 6.13187C2.55469 6.1322 2.34291 6.22022 2.1868 6.37658C2.03069 6.53294 1.94302 6.74487 1.94304 6.96582ZM6.60087 12.9542C6.67373 12.9532 6.74331 12.9238 6.79484 12.8723C6.84636 12.8208 6.87575 12.7512 6.87676 12.6783V8.78041C6.87575 8.70756 6.84636 8.63797 6.79484 8.58645C6.74331 8.53492 6.67373 8.50553 6.60087 8.50452H1.38094C1.30807 8.50546 1.23844 8.53483 1.1869 8.58637C1.13536 8.63791 1.10599 8.70753 1.10505 8.78041V12.6783C1.10599 12.7512 1.13536 12.8208 1.1869 12.8724C1.23844 12.9239 1.30807 12.9533 1.38094 12.9542H6.60087ZM9.1884 15.2775C9.1333 15.2773 9.0792 15.2627 9.03139 15.2353L7.10779 14.1246H7.10734C6.94458 14.1816 6.77332 14.2106 6.60087 14.2103H4.4404V17.704L8.29524 19.9304L11.8347 21.9738V13.798L9.34541 15.2353C9.29765 15.2629 9.24352 15.2774 9.1884 15.2775Z" fill="white"/>
</g>
<defs>
<clipPath id="clip0_3936_13550">
<rect width="22" height="23" fill="white" transform="translate(0.5)"/>
</clipPath>
</defs>
</svg>
