<svg width="23" height="25" viewBox="0 0 23 25" fill="none" xmlns="http://www.w3.org/2000/svg">
<path fill-rule="evenodd" clip-rule="evenodd" d="M0.988985 14.4416C3.20444 14.4416 4.31598 17.2374 2.74952 18.8691C2.68087 18.9406 2.62642 19.0255 2.58927 19.1189C2.55212 19.2123 2.533 19.3124 2.533 19.4135C2.533 19.5146 2.55212 19.6148 2.58927 19.7082C2.62642 19.8016 2.68087 19.8865 2.74952 19.958L4.3405 21.6153C4.47913 21.7597 4.66713 21.8408 4.86316 21.8408C5.05919 21.8408 5.24719 21.7597 5.38581 21.6153C6.95223 19.9835 9.6362 21.1414 9.6362 23.4492C9.63624 23.6533 9.71409 23.849 9.85263 23.9933C9.99118 24.1376 10.1791 24.2187 10.375 24.2188H12.625C12.722 24.2188 12.8181 24.1989 12.9078 24.1602C12.9975 24.1215 13.0789 24.0648 13.1476 23.9933C13.2162 23.9218 13.2706 23.837 13.3077 23.7436C13.3449 23.6502 13.364 23.5501 13.364 23.449C13.364 21.1384 16.0459 19.9813 17.6144 21.6151C17.753 21.7595 17.941 21.8406 18.137 21.8406C18.3331 21.8406 18.5211 21.7595 18.6597 21.6151L20.2505 19.9578C20.3891 19.8134 20.467 19.6175 20.467 19.4133C20.467 19.2091 20.3891 19.0133 20.2505 18.8689C18.684 17.2372 19.7956 14.4414 22.011 14.4414C22.207 14.4414 22.3949 14.3604 22.5335 14.216C22.6721 14.0717 22.75 13.876 22.75 13.6719V11.3281C22.75 11.227 22.7309 11.1269 22.6938 11.0335C22.6566 10.9401 22.6022 10.8553 22.5336 10.7838C22.4649 10.7123 22.3835 10.6556 22.2938 10.6169C22.2042 10.5782 22.1081 10.5583 22.011 10.5583C19.7956 10.5583 18.684 7.76255 20.2505 6.13086C20.3891 5.98646 20.467 5.79063 20.467 5.58643C20.467 5.38223 20.3891 5.18639 20.2505 5.04199L18.6595 3.38467C18.5908 3.31316 18.5093 3.25644 18.4197 3.21774C18.33 3.17904 18.2339 3.15913 18.1368 3.15913C18.0397 3.15913 17.9436 3.17904 17.8539 3.21774C17.7643 3.25644 17.6828 3.31316 17.6141 3.38467C16.0477 5.01641 13.3637 3.85855 13.3637 1.55078C13.3637 1.3467 13.2859 1.151 13.1473 1.0067C13.0088 0.862394 12.8209 0.781302 12.625 0.78125H10.375C10.278 0.781244 10.1819 0.80115 10.0922 0.839833C10.0025 0.878515 9.92107 0.935216 9.85245 1.0067C9.78382 1.07818 9.72939 1.16304 9.69226 1.25644C9.65512 1.34983 9.63601 1.44994 9.63601 1.55103C9.63601 3.85879 6.95205 5.01665 5.38562 3.38491C5.31699 3.31341 5.23551 3.2567 5.14583 3.218C5.05615 3.17931 4.96004 3.15939 4.86297 3.15939C4.7659 3.15939 4.66978 3.17931 4.58011 3.218C4.49043 3.2567 4.40895 3.31341 4.34031 3.38491L2.74933 5.04224C2.68068 5.11373 2.62623 5.1986 2.58908 5.29202C2.55193 5.38543 2.53281 5.48556 2.53281 5.58667C2.53281 5.68778 2.55193 5.78791 2.58908 5.88132C2.62623 5.97474 2.68068 6.05961 2.74933 6.1311C4.3158 7.76279 3.20425 10.5586 0.988796 10.5586C0.792875 10.5586 0.604988 10.6397 0.466446 10.784C0.327904 10.9283 0.25005 11.124 0.25 11.3281V13.6719C0.249994 13.773 0.269104 13.8731 0.30624 13.9665C0.343374 14.0599 0.397806 14.1447 0.466429 14.2162C0.535051 14.2877 0.61652 14.3444 0.706181 14.3831C0.795841 14.4218 0.891939 14.4417 0.988985 14.4417V14.4416ZM4.61102 12.4978C4.61143 11.0786 5.01582 9.69142 5.77304 8.51162C6.53027 7.33181 7.60633 6.41239 8.86516 5.86959C10.124 5.32679 11.5091 5.18499 12.8453 5.46213C14.1815 5.73926 15.4088 6.42289 16.372 7.42656C17.3352 8.43023 17.9911 9.70888 18.2568 11.1008C18.5224 12.4928 18.3859 13.9355 17.8644 15.2467C17.3429 16.5578 16.4599 17.6784 15.3271 18.4668C14.1943 19.2552 12.8624 19.676 11.5 19.676C10.5951 19.676 9.69916 19.4903 8.86322 19.1296C8.02728 18.7688 7.26775 18.24 6.62802 17.5734C5.98829 16.9068 5.4809 16.1155 5.13482 15.2446C4.78873 14.3737 4.61074 13.4404 4.61102 12.4978ZM13.8305 10.3125C13.8306 10.7927 13.6939 11.2621 13.4379 11.6614C13.1818 12.0607 12.8178 12.3719 12.3919 12.5557C11.9661 12.7395 11.4974 12.7876 11.0453 12.694C10.5932 12.6003 10.1778 12.3691 9.85188 12.0295C9.5259 11.69 9.30391 11.2574 9.21397 10.7864C9.12404 10.3155 9.1702 9.82732 9.34661 9.38369C9.52303 8.94005 9.82178 8.56088 10.2051 8.29411C10.5884 8.02735 11.039 7.88498 11.5 7.88501C12.1181 7.88502 12.7108 8.14077 13.1479 8.59601C13.5849 9.05125 13.8305 9.66868 13.8305 10.3125ZM11.5 14.1393C12.4291 14.1391 13.3402 14.4063 14.1328 14.9114C14.9253 15.4164 15.5685 16.1398 15.9913 17.0016C15.4098 17.6312 14.7123 18.132 13.9406 18.4741C13.1689 18.8161 12.3388 18.9925 11.5001 18.9925C10.6615 18.9925 9.83139 18.8161 9.05967 18.4741C8.28796 18.132 7.59046 17.6312 7.00895 17.0016C7.4317 16.1398 8.07482 15.4164 8.86733 14.9113C9.65984 14.4062 10.5709 14.1391 11.5 14.1393Z" fill="white"/>
</svg>
