<svg width="14" height="18" viewBox="0 0 14 18" fill="none" xmlns="http://www.w3.org/2000/svg">
<path d="M7.00023 9.17217C8.04687 9.17217 9.06892 8.53711 9.8781 7.38397C10.5922 6.36634 11.0185 5.10814 11.0185 4.0183C11.0186 1.80262 9.21591 0 7.00023 0C4.78455 0 2.98193 1.80262 2.98193 4.0183C2.98193 5.10814 3.40823 6.36634 4.12236 7.38397C4.93154 8.53711 5.95359 9.17217 7.00023 9.17217ZM7.00023 0.655243C8.85461 0.655243 10.3633 2.16392 10.3633 4.0183C10.3633 4.96425 9.97184 6.10966 9.34176 7.0076C8.66865 7.96679 7.81522 8.51693 7.00023 8.51693C6.18524 8.51693 5.33181 7.96679 4.6587 7.0076C4.02862 6.10966 3.63718 4.96425 3.63718 4.0183C3.63718 2.16392 5.14585 0.655243 7.00023 0.655243Z" fill="#333333"/>
<path d="M12.8885 10.9688C12.1805 9.87003 11.1838 8.99292 10.006 8.43225C9.94495 8.40319 9.87641 8.39373 9.80978 8.40515C9.74315 8.41658 9.68168 8.44834 9.63381 8.49607C8.84442 9.28328 7.93368 9.69932 7.00004 9.69932C6.06628 9.69932 5.15567 9.28328 4.36675 8.49612C4.3189 8.44835 4.25743 8.41656 4.19078 8.40511C4.12414 8.39367 4.05558 8.40314 3.99453 8.43221C2.81676 8.99288 1.81991 9.87003 1.11182 10.9688C0.384453 12.0974 0 13.4069 0 14.7555V14.7612C0 14.8536 0.0390526 14.9417 0.107504 15.0039C1.99792 16.7183 4.44573 17.6624 7 17.6624C9.55427 17.6624 12.002 16.7183 13.8925 15.0039C13.9264 14.9731 13.9534 14.9357 13.9719 14.8939C13.9904 14.8521 14 14.8069 14 14.7612V14.7555C14.0001 13.4069 13.6157 12.0974 12.8885 10.9688ZM7.00004 17.0072C4.65773 17.0072 2.41094 16.1591 0.656772 14.6159C0.682239 13.4428 1.02869 12.3074 1.66261 11.3238C2.26399 10.3906 3.09489 9.63384 4.07508 9.12402C4.95071 9.93009 5.95755 10.3546 7.00004 10.3546C8.04236 10.3546 9.04938 9.93001 9.92544 9.12397C10.9056 9.63375 11.7364 10.3906 12.3377 11.3237C12.9715 12.3073 13.3178 13.4427 13.3433 14.6159C11.5891 16.159 9.34236 17.0072 7.00004 17.0072Z" fill="#333333"/>
</svg>
