<svg width="14" height="18" viewBox="0 0 14 18" fill="none" xmlns="http://www.w3.org/2000/svg">
<path fill-rule="evenodd" clip-rule="evenodd" d="M10.3521 16.969L7.29574 15.2045V12.0174L10.2041 13.6962C10.249 13.7222 10.3001 13.7359 10.352 13.7359C10.4039 13.7359 10.455 13.7222 10.4999 13.6962L13.4085 12.0174V15.2045L10.3521 16.969ZM3.64799 16.969L0.591851 15.2045V12.0174L3.49993 13.6962C3.54491 13.7222 3.59595 13.7359 3.64789 13.7359C3.69984 13.7359 3.75087 13.7222 3.79586 13.6962L6.70389 12.0174V15.2045L3.64799 16.969ZM3.64799 9.91116L0.887501 11.5048L3.64799 13.0985L6.4082 11.5048L3.64799 9.91116ZM6.99982 5.60159C9.51775 5.60159 11.5856 7.56332 11.7559 10.0385L10.4999 9.31338C10.455 9.28738 10.4039 9.27369 10.352 9.27369C10.3 9.27369 10.249 9.28738 10.2041 9.31338L6.99982 11.1634L3.79586 9.31338C3.75088 9.28738 3.69984 9.27369 3.64789 9.27369C3.59594 9.27369 3.54491 9.28738 3.49993 9.31338L2.24393 10.0385C2.4143 7.56332 4.48234 5.60159 6.99982 5.60159ZM4.7908 2.80082C4.7908 1.5828 5.78175 0.591621 6.99977 0.591621C8.21829 0.591621 9.20924 1.5828 9.20924 2.80082C9.20924 4.01911 8.21829 5.01006 6.99977 5.01006C5.78175 5.01002 4.7908 4.01911 4.7908 2.80082ZM13.1125 11.5048L10.3521 9.91116L7.59167 11.5048L10.3521 13.0985L13.1125 11.5048ZM13.8519 11.2486L12.3594 10.3869C12.3594 7.91231 10.7039 5.8366 8.43447 5.20534C9.25219 4.71556 9.80105 3.82117 9.80105 2.80082C9.80105 1.25651 8.54454 0 6.99977 0C5.45546 0 4.19918 1.25651 4.19918 2.80082C4.19918 3.82121 4.74781 4.71556 5.56553 5.20511C3.29583 5.83637 1.64041 7.91231 1.64041 10.3869L0.148055 11.2486C0.103066 11.2745 0.0657036 11.3119 0.0397164 11.3569C0.0137292 11.4019 3.20534e-05 11.4529 0 11.5048V15.3754C-5.27818e-07 15.4274 0.0136828 15.4784 0.0396733 15.5234C0.0656637 15.5684 0.103044 15.6057 0.148055 15.6317L3.49984 17.5671C3.54488 17.5929 3.59589 17.6065 3.6478 17.6065C3.69971 17.6065 3.75072 17.5929 3.79576 17.5671L6.99972 15.7171L10.204 17.5671C10.249 17.5929 10.3 17.6065 10.3519 17.6065C10.4038 17.6065 10.4548 17.5929 10.4998 17.5671L13.8519 15.6317C13.8969 15.6057 13.9343 15.5684 13.9603 15.5234C13.9863 15.4784 14 15.4274 14 15.3754V11.5048C14 11.4529 13.9863 11.4019 13.9603 11.3569C13.9343 11.3119 13.8969 11.2745 13.8519 11.2486Z" fill="#333333"/>
</svg>
