<svg width="19" height="19" viewBox="0 0 19 19" fill="none" xmlns="http://www.w3.org/2000/svg">
<path d="M17.8125 15.1406H15.7344V3.5625C15.7344 3.39922 15.6008 3.26562 15.4375 3.26562H3.85938V1.1875C3.85938 1.02422 3.72578 0.890625 3.5625 0.890625H1.1875C1.02422 0.890625 0.890625 1.02422 0.890625 1.1875C0.890625 1.35078 1.02422 1.48438 1.1875 1.48438H3.26562V15.4375C3.26562 15.6008 3.39922 15.7344 3.5625 15.7344H5.34375C5.1582 15.983 5.04688 16.291 5.04688 16.625C5.04688 17.4451 5.71113 18.1094 6.53125 18.1094C7.35137 18.1094 8.01562 17.4451 8.01562 16.625C8.01562 16.291 7.9043 15.983 7.71875 15.7344H11.2812C11.0957 15.983 10.9844 16.291 10.9844 16.625C10.9844 17.4451 11.6486 18.1094 12.4688 18.1094C13.2889 18.1094 13.9531 17.4451 13.9531 16.625C13.9531 16.291 13.8418 15.983 13.6562 15.7344H17.8125C17.9758 15.7344 18.1094 15.6008 18.1094 15.4375C18.1094 15.2742 17.9758 15.1406 17.8125 15.1406ZM15.1406 9.20312H9.79688V3.85938H15.1406V9.20312ZM3.85938 3.85938H9.20312V9.20312H3.85938V3.85938ZM3.85938 9.79688H9.20312V15.1406H3.85938V9.79688ZM7.42188 16.625C7.42188 17.1148 7.02109 17.5156 6.53125 17.5156C6.04141 17.5156 5.64062 17.1148 5.64062 16.625C5.64062 16.1352 6.04141 15.7344 6.53125 15.7344C7.02109 15.7344 7.42188 16.1352 7.42188 16.625ZM9.79688 9.79688H15.1406V15.1406H9.79688V9.79688ZM13.3594 16.625C13.3594 17.1148 12.9586 17.5156 12.4688 17.5156C11.9789 17.5156 11.5781 17.1148 11.5781 16.625C11.5781 16.1352 11.9789 15.7344 12.4688 15.7344C12.9586 15.7344 13.3594 16.1352 13.3594 16.625Z" fill="#333333"/>
<path d="M13.6562 10.6504C13.6562 10.4871 13.5227 10.3535 13.3594 10.3535H11.5781C11.4148 10.3535 11.2812 10.4871 11.2812 10.6504C11.2812 10.8137 11.4148 10.9473 11.5781 10.9473H13.3594C13.5227 10.9473 13.6562 10.8137 13.6562 10.6504ZM7.71875 10.6504C7.71875 10.4871 7.58516 10.3535 7.42188 10.3535H5.64062C5.47734 10.3535 5.34375 10.4871 5.34375 10.6504C5.34375 10.8137 5.47734 10.9473 5.64062 10.9473H7.42188C7.58516 10.9473 7.71875 10.8137 7.71875 10.6504ZM11.5781 5.00977H13.3594C13.5227 5.00977 13.6562 4.87617 13.6562 4.71289C13.6562 4.54961 13.5227 4.41602 13.3594 4.41602H11.5781C11.4148 4.41602 11.2812 4.54961 11.2812 4.71289C11.2812 4.87617 11.4148 5.00977 11.5781 5.00977ZM7.42188 4.41602H5.64062C5.47734 4.41602 5.34375 4.54961 5.34375 4.71289C5.34375 4.87617 5.47734 5.00977 5.64062 5.00977H7.42188C7.58516 5.00977 7.71875 4.87617 7.71875 4.71289C7.71875 4.54961 7.58516 4.41602 7.42188 4.41602Z" fill="#333333"/>
</svg>
